<svg xmlns="http://www.w3.org/2000/svg" viewBox="0 0 171.3 60.8" enable-background="new 0 0 171.3 60.8"><linearGradient id="a" gradientUnits="userSpaceOnUse" x1="28.81" y1="27.002" x2="28.81" y2="60.814"><stop offset="0" stop-color="#00A79C"/><stop offset=".172" stop-color="#3AAFA6"/><stop offset=".517" stop-color="#65BEB6"/><stop offset=".805" stop-color="#7AC9C2"/><stop offset="1" stop-color="#80CEC7"/></linearGradient><path fill="url(#a)" d="M.8 32.9l26.5-5.9 29.6 29.7-28.2 4.1z"/><linearGradient id="b" gradientUnits="userSpaceOnUse" x1="139.311" y1="15.657" x2="139.311" y2="52.782"><stop offset="0" stop-color="#00A79C"/><stop offset=".108" stop-color="#36AEA4"/><stop offset=".326" stop-color="#5CBAB2"/><stop offset=".546" stop-color="#71C4BD"/><stop offset=".769" stop-color="#7DCBC4"/><stop offset="1" stop-color="#80CEC7"/></linearGradient><path fill="url(#b)" d="M107.3 25.8l33.4-10.1 30.6 31.8-37 5.3z"/><linearGradient id="c" gradientUnits="userSpaceOnUse" x1="54.409" y1="6.464" x2="54.409" y2="49.068"><stop offset="0" stop-color="#00A79C"/><stop offset=".153" stop-color="#47B2AA"/><stop offset=".326" stop-color="#63BDB6"/><stop offset=".513" stop-color="#74C6BF"/><stop offset=".723" stop-color="#7ECCC5"/><stop offset="1" stop-color="#80CEC7"/></linearGradient><path fill="url(#c)" d="M25 10.9l20-4.4 38.8 39.4-21.2 3.2z"/><path fill="#fff" d="M137.1 14.4h-.1c.1-.4.1-.8.1-1.2 0-4.4-3.6-8-8-8-3.6 0-6.7 2.4-7.7 5.7-1-1.2-2.5-1.9-4.2-1.9-3 0-5.5 2.5-5.5 5.5h-1.1c-3.3 0-6 2.7-6 6s2.7 6 6 6h26.4c3.3 0 6-2.7 6-6s-2.6-6.1-5.9-6.1zm-113.5 10.9c0-2.4-2-4.4-4.4-4.4-1.1 0-2.2.4-2.9 1.1-.9-2.4-3.2-4.1-6-4.1-3.5.1-6.3 2.9-6.3 6.4 0 .4 0 .7.1 1-2.3.4-4.1 2.4-4.1 4.8 0 2.7 2.2 4.8 4.8 4.8h18.8c2.7 0 4.8-2.2 4.8-4.8 0-2.6-2.1-4.8-4.8-4.8z"/><path fill="#DFF2F6" d="M42.5 5.5h-1.1c-.3-3.1-2.9-5.5-6-5.5-3.2 0-5.7 2.4-6 5.5h-1.1c-2 0-3.6 1.6-3.6 3.6s1.6 3.6 3.6 3.6h14.2c2 0 3.6-1.6 3.6-3.6s-1.6-3.6-3.6-3.6z"/></svg>