<svg xmlns="http://www.w3.org/2000/svg" viewBox="0 0 89.4 89.4" enable-background="new 0 0 89.4 89.4"><path fill="#FAA51A" d="M83.1 53c-1-1-2-1.8-3.1-2.5l-.2-.2c-19.2-17-41.6-32.8-65.4-47.8-3.3-3.3-8.6-3.3-11.9 0-3.3 3.3-3.3 8.6 0 11.9 15 23.8 30.9 46.2 47.8 65.4l.2.2c.7 1.1 1.6 2.1 2.5 3.1 8.3 8.3 21.8 8.3 30.2 0 8.3-8.3 8.3-21.8-.1-30.1z"/><path fill="#fff" d="M76.6 58.7l-61-43.1 43.1 61z"/><path fill="#533F30" d="M76.6 76.6c-4.9 4.9-12.9 4.9-17.9 0-4.9-4.9-4.9-12.9 0-17.9 4.9-4.9 12.9-4.9 17.9 0 4.9 5 4.9 13 0 17.9z"/></svg>