<svg xmlns="http://www.w3.org/2000/svg" viewBox="0 0 167 13.9" enable-background="new 0 0 167 13.9"><path fill="#176C7F" d="M0 8.7h167v5.1h-167z"/><path fill="#069FB5" d="M166.9 2c-1.5 0-2.8-.8-3.5-2-.7 1.2-2 2-3.5 2s-2.8-.8-3.5-2c-.7 1.2-2 2-3.5 2s-2.8-.8-3.5-2c-.7 1.2-2 2-3.5 2s-2.8-.8-3.5-2c-.7 1.2-2 2-3.5 2s-2.8-.8-3.5-2c-.7 1.2-2 2-3.5 2s-2.8-.8-3.5-2c-.7 1.2-2 2-3.5 2s-2.8-.8-3.5-2c-.7 1.2-2 2-3.5 2s-2.8-.8-3.5-2c-.7 1.2-2 2-3.5 2s-2.8-.8-3.5-2c-.7 1.2-2 2-3.5 2s-2.8-.8-3.5-2c-.7 1.2-2 2-3.5 2s-2.8-.8-3.5-2c-.7 1.2-2 2-3.5 2s-2.8-.8-3.5-2c-.7 1.2-2 2-3.5 2s-2.8-.8-3.5-2c-.7 1.2-2 2-3.5 2s-2.8-.8-3.5-2c-.7 1.2-2 2-3.5 2-.9 0-2.2-.8-2.9-2-.7 1.2-2 2-3.5 2s-2.8-.8-3.5-2c-.7 1.2-2 2-3.5 2s-2.7-.8-3.5-2c-.7 1.2-2 2-3.5 2s-2.8-.8-3.5-2c-.7 1.2-2 2-3.5 2s-2.8-.8-3.5-2c-.7 1.2-2 2-3.5 2s-2.8-.8-3.5-2c-.7 1.2-2 2-3.5 2s-2.8-.8-3.5-2c-.7 1.2-2 2-3.5 2s-2.8-.8-3.5-2c-.7 1.2-2 2-3.5 2s-2.8-.8-3.5-2c-.7 1.2-2 2-3.5 2-1.2 0-2.5-.8-3.2-2-.7 1.2-1.9 1.9-3.3 2v6.7h167l-.1-6.7z"/><path fill="#F285B6" d="M44.9 7.6c2.5 0 4.5-2 4.5-4.5h-9c.1 2.5 2.1 4.5 4.5 4.5zm88.5 0c2.5 0 4.5-2 4.5-4.5h-9c0 2.5 2 4.5 4.5 4.5z"/><path fill="#fff" d="M67.7 9.3c2.4 0 4.4-2 4.4-4.4h-8.8c0 2.4 2 4.4 4.4 4.4z"/><path fill="#BAD532" d="M51.8 7.2h-13.7c-.4 0-.7.3-.7.7 0 .4.3.7.7.7h13.7c.4 0 .8-.3.8-.7-.1-.3-.4-.7-.8-.7zm22.9 1.5h-13.6c-.4 0-.7.3-.7.8s.3.8.7.8h13.7c.4 0 .7-.3.7-.8s-.4-.8-.8-.8zm65.5-1.5h-13.7c-.4 0-.7.3-.7.7 0 .4.3.7.7.7h13.7c.4 0 .8-.3.8-.7 0-.3-.4-.7-.8-.7z"/></svg>