<svg xmlns="http://www.w3.org/2000/svg" viewBox="0 0 1000 1000" enable-background="new 0 0 1000 1000"><path fill="#D22C49" d="M467.4,700.4V1.8c-213.3,198.3-360.8,438.1-388,698.6H467.4z"/><polygon fill="#EF4752" points="966.4,728.3 516.8,700.4 516.8,1.8 "/><g><polygon fill="#FFFFFF" points="933.4,998.2 95.9,998.2 90.2,910.9 131.7,779.9 1000,779.9"/><polygon fill="#FFFFFF" points="60.8,998.2 853.3,998.2 823.2,910.9 786,779.9 0,779.9"/></g><path fill="#4A3C2C" d="M690.1,875.1c0,25.1-20.8,45.8-45.8,45.8c-25.1,0-45.8-20.8-45.8-45.8c0-25.1,20.8-45.8,45.8-45.8  C669.3,829.3,690.1,850,690.1,875.1z"/><path fill="#FFFFFF" d="M668.6,875.1c0,13.6-10.7,24.3-24.3,24.3s-24.3-10.7-24.3-24.3s10.7-24.3,24.3-24.3  C657.1,850.8,668.6,861.5,668.6,875.1z"/><path fill="#4A3C2C" d="M894.8,875.1c0,18.6-15,33.6-33.6,33.6c-18.6,0-33.6-15-33.6-33.6c0-18.6,15-33.6,33.6-33.6  C879,841.4,894.8,856.5,894.8,875.1z"/><path fill="#4A3C2C" d="M481,875.1c0,25.1-20.8,45.8-45.8,45.8c-25.1,0-45.8-20.8-45.8-45.8c0-25.1,20.8-45.8,45.8-45.8  C460.3,829.3,481,850,481,875.1z"/><path fill="#FFFFFF" d="M459.6,875.1c0,13.6-10.7,24.3-24.3,24.3s-24.3-10.7-24.3-24.3s10.7-24.3,24.3-24.3S459.6,861.5,459.6,875.1  z"/><path fill="#4A3C2C" d="M272,875.1c0,25.1-20.8,45.8-45.8,45.8s-45.8-20.8-45.8-45.8c0-25.1,20.8-45.8,45.8-45.8  C251.3,829.3,272,850,272,875.1z"/><path fill="#FFFFFF" d="M250.5,875.1c0,13.6-10.7,24.3-24.3,24.3s-24.3-10.7-24.3-24.3s10.7-24.3,24.3-24.3  C239.1,850.8,250.5,861.5,250.5,875.1z"/></svg>
