<svg xmlns="http://www.w3.org/2000/svg" viewBox="0 0 241.6 142.4" enable-background="new 0 0 241.6 142.4"><path fill="#74C2C9" d="M16.7 117.1h50v-74.6zm0 0h50v-74.6z"/><path fill="#228F9A" d="M52.4 95.8h49.9v-79z"/><path fill="#15A4A7" d="M102.3 76.2l-4.7-15.8-1.7-14.4-4.1-3-5.8-.4-2.6 4.1-13.2 21c2 3 9.9 14.1 9.9 14.1s15.4 4 15.6 4c.2-.1 4.7-4.2 6.6-6v-3.6z"/><path fill="#187C86" d="M152.2 95.8h-49.9v-79z"/><path fill="#2BB3B0" d="M102.3 41.7h-.2l-6.3 4.4v6.9l-8.5 25.8 4.7 2.4h-.3l4.7 9.2 5.9-5.4z"/><path fill="#2A9C9D" d="M102.3 85l9.8-9 11.1-17.2-.3-9.3-7.5-11.9-13.1 4.1z"/><path fill="#fff" d="M95.2 28l2.2.9 1.6.2 3.3.9.5.1-.5-13.3z"/><path fill="#D2EDF3" d="M109.2 27.7l-6.9-10.9v13.2l2.7.2z"/><path fill="#236673" d="M16.7 117.1h50v-74.6z"/><path fill="#054C55" d="M116.7 117.1h-50v-74.6z"/><path fill="#236673" d="M48.1 104.9l-7-24.2-20.2 30.1v6.3h29.7z"/><path fill="#187C86" d="M44 102l16.4-11.7 1-12.9-7.7-15.6-1 1.6-13.5 20.1z"/><path fill="#035A68" d="M107.9 103.9l-16.4-24.4-11-1.7h-9.8l-4 7.8v31.5h23.8z"/><path fill="#236673" d="M86.4 110.7l-10.8-23.3-4.9-9.6-4-4.5v43.8h14.7z"/><path fill="#2A9C9D" d="M66.7 73.3l-5.3 4.1-3.2 5-14.9 16.6 1.1 18.1h22.3z"/><path fill="#fff" d="M58.8 54l-.6.9 4.9 1.9 3.6 3.6.9-.5-.9-17.4z"/><path fill="#D2EDF3" d="M76.3 56.5l-9.6-14v17.9l4.1-2.8z"/><path fill="#2A9C9D" d="M75.6 114.2h76.6v-114.2z"/><path fill="#236673" d="M228.9 114.2h-76.7v-114.2zm-76.7-82.5l-12 16.9-11.8 24.4 1.2 29 10.8 12.2h11.8z"/><path fill="#187C86" d="M88.3 102l6.3 12.2h44.6v-15.4l-4.4-39.1-13.7-13.2-1.3 1.8-30.8 47.1z"/><path fill="#054C55" d="M228.5 113.9l-43-64.2-9.4 22.7-2.6 36.2 14.8 5.8h39z"/><path fill="#035A68" d="M197 74l-2-10.1-24.2-36.1-11.9 21.3 13.9 34.1z"/><path fill="#054C55" d="M192.6 109.8l-7-28.7s-15.4-27.8-16.1-29.7c-.3-.8-12.8-21.3-12.8-21.3l-4.4 1.5v82.5h36.9l3.4-4.3z"/><path fill="#2A9C9D" d="M130.8 59.5l4.3.9 3.7 35.8-21.3.7z"/><path fill="#D2EDF3" d="M152.2 0v37.3l1.3-.1 9.6-7.1 7.5-2.7z"/><path fill="#fff" d="M132.4 30.7l5.8 1 5.9.4 3.9 5.5 4.2-.3v-37.3l-20.2 30.1z"/><path fill="#D2EDF3" d="M127.6 44.2l4.2 1.3 4.7-4-4.5-2-4.4.6zm.2 8.8l6.2-6.1 5.2-.4h1.7l.7.2-2.4 6.5-4.1 7.2-4.3-.9z"/><path fill="#DCA135" d="M26.8 98.8h4.6v8h-4.6z"/><path fill="#89C540" d="M29.1 81.9c-4.1 4.5-6.7 11-6.7 18.3h13.4c0-7.3-2.6-13.8-6.7-18.3z"/><path fill="#3EA347" d="M35.8 100.2c0-7.3-2.6-13.8-6.7-18.3v18.3h6.7z"/><path fill="#DCA135" d="M15.3 107.3h4.6v8h-4.6z"/><path fill="#89C540" d="M17.6 90.4c-4.1 4.5-6.7 11-6.7 18.3h13.4c0-7.3-2.6-13.8-6.7-18.3z"/><path fill="#3EA347" d="M24.3 108.6c0-7.3-2.6-13.8-6.7-18.3v18.3h6.7z"/><path fill="#DCA135" d="M216.5 108.9h4.6v8h-4.6z"/><path fill="#89C540" d="M218.8 91.9c-4.1 4.5-6.7 11-6.7 18.3h13.4c0-7.3-2.6-13.8-6.7-18.3z"/><path fill="#3EA347" d="M225.5 110.2c0-7.3-2.6-13.8-6.7-18.3v18.3h6.7z"/><path fill="#DCA135" d="M37.2 98h2.7v4.8h-2.7z"/><path fill="#89C540" d="M38.6 87.8c-2.5 2.7-4 6.6-4 11h8.1c-.1-4.4-1.6-8.3-4.1-11z"/><path fill="#3EA347" d="M42.6 98.8c0-4.4-1.6-8.3-4-11v11h4z"/><path fill="#DCA135" d="M53.7 106.2h3.4v5.9h-3.4z"/><path fill="#89C540" d="M55.4 93.6c-3 3.3-4.9 8.1-4.9 13.5h9.9c0-5.3-1.9-10.1-5-13.5z"/><path fill="#3EA347" d="M60.4 107.1c0-5.4-1.9-10.2-4.9-13.5v13.5h4.9z"/><path fill="#DCA135" d="M95.3 102.8h4.6v8h-4.6z"/><path fill="#89C540" d="M97.6 85.8c-4.1 4.5-6.7 11-6.7 18.3h13.4c0-7.3-2.6-13.8-6.7-18.3z"/><path fill="#3EA347" d="M104.3 104.1c0-7.3-2.6-13.8-6.7-18.3v18.3h6.7z"/><path fill="#DCA135" d="M81.9 115.8h4.6v8h-4.6z"/><path fill="#89C540" d="M84.2 98.8c-4.1 4.5-6.7 11-6.7 18.3h13.4c0-7.2-2.6-13.7-6.7-18.3z"/><path fill="#3EA347" d="M90.9 117.1c0-7.3-2.6-13.8-6.7-18.3v18.3h6.7z"/><path fill="#DCA135" d="M106.7 92.1h2.7v4.8h-2.7z"/><path fill="#89C540" d="M108.1 81.9c-2.5 2.7-4 6.6-4 11h8.1c-.1-4.4-1.6-8.3-4.1-11z"/><path fill="#3EA347" d="M112.1 92.8c0-4.4-1.6-8.3-4-11v11h4z"/><path fill="#DCA135" d="M149.5 104.4h4.6v8h-4.6z"/><path fill="#89C540" d="M151.8 87.4c-4.1 4.5-6.7 11-6.7 18.3h13.4c0-7.3-2.6-13.8-6.7-18.3z"/><path fill="#3EA347" d="M158.5 105.7c0-7.3-2.6-13.8-6.7-18.3v18.3h6.7z"/><path fill="#DCA135" d="M200.2 98.1h4.6v8h-4.6z"/><path fill="#89C540" d="M202.5 81.2c-4.1 4.5-6.7 11-6.7 18.3h13.4c0-7.3-2.6-13.8-6.7-18.3z"/><path fill="#3EA347" d="M209.2 99.4c0-7.3-2.6-13.8-6.7-18.3v18.3h6.7z"/><path fill="#DCA135" d="M132.9 90.3h4.6v8h-4.6z"/><path fill="#89C540" d="M135.1 73.3c-4.1 4.5-6.7 11-6.7 18.3h13.4c.1-7.3-2.5-13.8-6.7-18.3z"/><path fill="#3EA347" d="M141.9 91.6c0-7.3-2.6-13.8-6.7-18.3v18.3h6.7z"/><path fill="#DCA135" d="M176 109h2.7v4.8h-2.7z"/><path fill="#89C540" d="M177.4 98.8c-2.5 2.7-4 6.6-4 11h8.1c0-4.3-1.6-8.3-4.1-11z"/><path fill="#3EA347" d="M181.5 109.8c0-4.4-1.6-8.3-4-11v11h4z"/><path fill="#DCA135" d="M191.2 99.6h2.7v4.8h-2.7z"/><path fill="#89C540" d="M192.6 89.4c-2.5 2.7-4 6.6-4 11h8.1c-.1-4.4-1.6-8.3-4.1-11z"/><path fill="#3EA347" d="M196.6 100.4c0-4.4-1.6-8.3-4-11v11h4z"/><path fill="#4EB95F" d="M241.6 136.5c-4.2-20-22-35-43.2-35-21.2 0-39 15-43.2 35h86.4z"/><path fill="#019257" d="M168 113.3l19.9 17.2-6.4 5.2-9.1-2.1-4.4-20.7z"/><path fill="#03846E" d="M241.6 136.5c-4.2-20-22-35-43.2-35v35h43.2z"/><path fill="#DCA135" d="M119.1 106.3h3.4v5.9h-3.4z"/><path fill="#89C540" d="M120.8 93.8c-3 3.3-4.9 8.1-4.9 13.5h9.9c-.1-5.4-2-10.2-5-13.5z"/><path fill="#49B749" d="M125.7 107.3c0-5.4-1.9-10.2-4.9-13.5v13.5h4.9z"/><path fill="#BAD532" d="M123 93.2c-29 0-53.4 20.8-60.9 49.2h121.8c-7.5-28.4-31.9-49.2-60.9-49.2z"/><path fill="#89C540" d="M75.6 115.8l18.1 13.4-4.5 7.3h-13.6l-4.7-5.1zm108.3 26.6c-7.5-28.4-31.9-49.2-60.9-49.2v49.2h60.9z"/><path fill="#4EB95F" d="M86.4 136.5c-4.2-20-22-35-43.2-35-21.2 0-39 15-43.2 35h86.4z"/><path fill="#03846E" d="M86.4 136.5c-4.2-20-22-35-43.2-35v35h43.2z"/></svg>